<svg xmlns="http://www.w3.org/2000/svg" width="616.3809204101562" height="98.05198669433594"
     viewBox="-333.8800354003906 -31.313716888427734 616.3809204101562 98.05198669433594">
    <title>Neo4j Graph Visualization</title>
    <desc>Created using Neo4j (http://www.neo4j.com/)</desc>
    <g class="layer relationships">
        <g class="relationship" transform="translate(-289.8800354003906 21.16054720724013) rotate(360.5262604561133)">
            <path class="outline" fill="#FB95AF" stroke="none"
                  d="M 40 0.5 L 59.04552475682165 0.5 L 59.04552475682165 -0.5 L 40 -0.5 Z M 105.72885910740759 0.5 L 124.77438386422924 0.5 L 124.77438386422924 3.5 L 131.77438386422924 0 L 124.77438386422924 -3.5 L 124.77438386422924 -0.5 L 105.72885910740759 -0.5 Z"/>
            <text text-anchor="middle" pointer-events="none" font-size="8px" fill="#000000" x="82.38719193211462" y="3"
                  font-family="sans-serif">CONTAINS
            </text>
        </g>
        <g class="relationship"
           transform="translate(-118.11289725639446 22.738268905422345) rotate(356.47102331882684)">
            <path class="outline" fill="#A5ABB6" stroke="none"
                  d="M 40 0.5 L 56.71933928166119 0.5 L 56.71933928166119 -0.5 L 40 -0.5 Z M 99.5860041681358 0.5 L 116.305343449797 0.5 L 116.305343449797 3.5 L 123.305343449797 0 L 116.305343449797 -3.5 L 116.305343449797 -0.5 L 99.5860041681358 -0.5 Z"/>
            <text text-anchor="middle" pointer-events="none" font-size="8px" fill="#000000" x="78.1526717248985" y="3"
                  font-family="sans-serif">HAS_KEY
            </text>
        </g>
        <g class="relationship" transform="translate(44.88278597726728 12.686281716415436) rotate(360.8336975059368)">
            <path class="outline" fill="#A5ABB6" stroke="none"
                  d="M 40 0.5 L 67.08596388777839 0.5 L 67.08596388777839 -0.5 L 40 -0.5 Z M 119.55263106307136 0.5 L 146.63859495084975 0.5 L 146.63859495084975 3.5 L 153.63859495084975 0 L 146.63859495084975 -3.5 L 146.63859495084975 -0.5 L 119.55263106307136 -0.5 Z"/>
            <text text-anchor="middle" pointer-events="none" font-size="8px" fill="#000000" x="93.31929747542488" y="3"
                  font-family="sans-serif">HAS_VALUE
            </text>
        </g>
    </g>
    <g class="layer nodes">
        <g class="node" transform="translate(-289.8800354003906,21.16054720724013)">
            <circle class="outline" cx="0" cy="0" r="40" fill="#6DCE9E" stroke="#60B58B" stroke-width="2px"/>
            <text text-anchor="middle" pointer-events="none" y="5" font-size="10px" fill="#FFFFFF"
                  font-family="sans-serif">File
            </text>
        </g>
        <g class="node" transform="translate(-118.11289725639446,22.738268905422345)">
            <circle class="outline" cx="0" cy="0" r="40" fill="#FFD86E" stroke="#EDBA39" stroke-width="2px"/>
            <text text-anchor="middle" pointer-events="none" y="5" font-size="10px" fill="#604A0E"
                  font-family="sans-serif">Object</text>
        </g>
        <g class="node selected" transform="translate(44.88278597726728,12.686281716415436)">
            <circle class="outline" cx="0" cy="0" r="40" fill="#A5ABB6" stroke="#9AA1AC" stroke-width="2px"/>
            <text text-anchor="middle" pointer-events="none" y="5" font-size="10px" fill="#FFFFFF"
                  font-family="sans-serif">A
            </text>
        </g>
        <g class="node" transform="translate(238.50088224300163,15.503772261578874)">
            <circle class="outline" cx="0" cy="0" r="40" fill="#FFD86E" stroke="#EDBA39" stroke-width="2px"/>
            <text text-anchor="middle" pointer-events="none" y="5" font-size="10px" fill="#604A0E"
                  font-family="sans-serif">Object
            </text>
        </g>
    </g>
</svg>